HIERARCHY
ROOT Hips
{
 OFFSET 0.000000 0.000000 0.000000
 CHANNELS 6 Xposition Yposition Zposition Yrotation Xrotation Zrotation
 JOINT Chest
 {
  OFFSET 0.000000 9.585900 0.002600
  CHANNELS 3 Yrotation Xrotation Zrotation
  JOINT Chest2
  {
   OFFSET 0.000000 9.601200 -0.005300
   CHANNELS 3 Yrotation Xrotation Zrotation
   JOINT Chest3
   {
    OFFSET 0.000000 9.561800 0.000000
    CHANNELS 3 Yrotation Xrotation Zrotation
    JOINT Chest4
    {
     OFFSET 0.000000 9.552100 0.000000
     CHANNELS 3 Yrotation Xrotation Zrotation
     JOINT Neck
     {
      OFFSET 0.000000 14.453000 0.000000
      CHANNELS 3 Yrotation Xrotation Zrotation
      JOINT Head
      {
       OFFSET 0.000000 8.936500 -0.011300
       CHANNELS 3 Yrotation Xrotation Zrotation
       End Site
       {
        OFFSET 0.000000 17.073600 -0.006000
       }
      }
     }
     JOINT RightCollar
     {
      OFFSET -2.921100 9.558500 0.000000
      CHANNELS 3 Yrotation Xrotation Zrotation
      JOINT RightShoulder
      {
       OFFSET -13.519700 0.000000 0.000000
       CHANNELS 3 Yrotation Xrotation Zrotation
       JOINT RightElbow
       {
        OFFSET 0.000000 -29.696600 0.000000
        CHANNELS 3 Yrotation Xrotation Zrotation
        JOINT RightWrist
        {
         OFFSET 0.000000 -24.004700 0.000000
         CHANNELS 3 Yrotation Xrotation Zrotation
         End Site
         {
          OFFSET 0.000000 -17.728500 0.000000
         }
        }
       }
      }
     }
     JOINT LeftCollar
     {
      OFFSET 2.921100 9.558500 0.000000
      CHANNELS 3 Yrotation Xrotation Zrotation
      JOINT LeftShoulder
      {
       OFFSET 13.519700 0.000000 0.000000
       CHANNELS 3 Yrotation Xrotation Zrotation
       JOINT LeftElbow
       {
        OFFSET 0.000000 -29.696600 0.000000
        CHANNELS 3 Yrotation Xrotation Zrotation
        JOINT LeftWrist
        {
         OFFSET 0.000000 -24.004700 0.000000
         CHANNELS 3 Yrotation Xrotation Zrotation
         End Site
         {
          OFFSET 0.000000 -17.728500 0.000000
         }
        }
       }
      }
     }
    }
   }
  }
 }
 JOINT RightHip
 {
  OFFSET -7.771700 -0.012900 -0.001300
  CHANNELS 3 Yrotation Xrotation Zrotation
  JOINT RightKnee
  {
   OFFSET 0.000000 -40.869800 0.001200
   CHANNELS 3 Yrotation Xrotation Zrotation
   JOINT RightAnkle
   {
    OFFSET 0.000000 -39.717900 0.002100
    CHANNELS 3 Yrotation Xrotation Zrotation
    JOINT RightToe
    {
     OFFSET 0.000000 -4.965400 11.033500
     CHANNELS 3 Yrotation Xrotation Zrotation
     End Site
     {
      OFFSET 0.000000 -1.423100 5.872300
     }
    }
   }
  }
 }
 JOINT LeftHip
 {
  OFFSET 7.771700 -0.012900 -0.001300
  CHANNELS 3 Yrotation Xrotation Zrotation
  JOINT LeftKnee
  {
   OFFSET 0.000000 -40.869800 0.001200
   CHANNELS 3 Yrotation Xrotation Zrotation
   JOINT LeftAnkle
   {
    OFFSET 0.000000 -39.717900 0.002100
    CHANNELS 3 Yrotation Xrotation Zrotation
    JOINT LeftToe
    {
     OFFSET 0.000000 -4.965400 11.033500
     CHANNELS 3 Yrotation Xrotation Zrotation
     End Site
     {
      OFFSET 0.000000 -1.423100 5.872300
     }
    }
   }
  }
 }
}
MOTION
Frames: 13
Frame Time: 0.008333
0.000000 85.388000 0.000000 0.000000 -5.767877 0.000000 0.000000 11.653817 0.000000 0.000000 -5.885947 0.000000 0.000000 -0.000000 0.000000 0.000000 -0.000000 0.000000 0.000000 12.528835 0.000000 0.000000 0.711642 0.000000 0.000000 -0.000000 0.000000 0.000000 0.000000 -90.000000 0.000000 -2.309062 0.000000 0.000000 2.309062 0.000000 0.000000 -0.000000 0.000000 0.000000 -0.000000 90.000000 0.000000 -2.309062 0.000000 0.000000 2.309062 0.000000 0.000000 8.520406 0.000000 0.000000 1.905762 0.000000 -0.000000 -4.658285 0.000000 0.000000 -0.000000 0.000000 0.000000 8.520406 0.000000 0.000000 1.905762 0.000000 -0.000000 -4.658285 0.000000 0.000000 -0.000000 0.000000
-98.258082 49.304546 20.716619 177.440388 -29.886181 -4.541447 1.324224 18.888224 2.690444 0.117365 2.229130 0.222352 0.161204 3.642992 0.422515 1.025352 16.389053 1.902413 9.374223 16.885413 0.035299 17.335419 -3.888109 -3.114799 -2.457947 -2.295783 -3.303601 -0.135047 -12.131030 -12.810505 -71.287711 -61.860705 116.246678 4.619992 -1.886998 -10.357070 0.865629 -2.040686 2.969972 19.027214 -6.583270 16.413863 84.477018 -44.232618 -111.119427 15.388634 -10.480935 17.780671 -4.944329 -54.317624 -6.482651 -149.344029 82.448626 -136.692818 -30.083823 -3.090280 -4.420376 -0.142882 -11.958863 1.755716 -14.563721 -56.679999 20.151589 -74.160055 65.329480 -79.420320 30.884642 6.673603 16.387981 -0.064117 -0.458306 -0.031830
-98.259674 49.302862 20.717626 177.467715 -29.869502 -4.552642 1.326788 18.894928 2.662142 0.102290 2.215686 0.243496 0.169569 3.649147 0.412974 1.027353 16.385274 1.906181 9.395764 16.907385 0.047390 17.352885 -3.881675 -3.077321 -2.466851 -2.302609 -3.296181 -0.143113 -12.078264 -12.790432 -71.359512 -61.838298 116.407656 4.609855 -2.010541 -10.320888 0.873053 -2.021187 2.965616 19.005854 -6.599338 16.401554 84.480422 -44.199877 -111.159694 15.367470 -10.497281 17.609087 -4.966828 -54.333882 -6.479540 -149.364531 82.446875 -136.718673 -30.094759 -3.093789 -4.404768 -0.140429 -11.955005 1.748013 -14.587305 -56.699319 20.158469 -74.137256 65.339068 -79.401172 30.873745 6.692497 16.394204 -0.065888 -0.468571 -0.028522
-98.261109 49.301187 20.718108 177.482640 -29.856318 -4.559844 1.324877 18.889454 2.653428 0.094267 2.211395 0.251521 0.178789 3.658741 0.398739 1.024762 16.376058 1.919262 9.419504 16.923143 0.048410 17.353020 -3.884046 -3.056222 -2.469660 -2.302176 -3.305421 -0.148334 -12.016757 -12.771288 -71.470312 -61.841542 116.561105 4.579834 -2.127758 -10.249489 0.888554 -1.988095 2.930263 18.979378 -6.625087 16.401499 84.463873 -44.147949 -111.194299 15.360620 -10.513976 17.455225 -4.980273 -54.349315 -6.471152 -149.338885 82.438009 -136.710744 -30.064485 -3.086140 -4.390473 -0.196883 -11.952171 1.754610 -14.599251 -56.713597 20.166243 -74.137397 65.334400 -79.400866 30.865764 6.695555 16.390346 -0.052835 -0.465357 -0.021345
-98.262839 49.299319 20.718397 177.487980 -29.844456 -4.561464 1.331381 18.882824 2.646673 0.094222 2.212125 0.247585 0.192281 3.664186 0.386126 1.019584 16.372000 1.924261 9.446754 16.923912 0.066762 17.351350 -3.884339 -3.031884 -2.471308 -2.294370 -3.324046 -0.157792 -11.988248 -12.726279 -71.533307 -61.812255 116.703393 4.575658 -2.216712 -10.233004 0.889371 -1.977198 2.929817 18.943639 -6.608607 16.362870 84.471663 -44.112786 -111.249021 15.365675 -10.523916 17.326427 -4.981716 -54.363549 -6.471254 -149.339406 82.432262 -136.716473 -30.040301 -3.087968 -4.396279 -0.164580 -11.948093 1.754540 -14.603930 -56.725553 20.170953 -74.133495 65.331409 -79.397436 30.863413 6.697209 16.388718 -0.044258 -0.460384 -0.017917
-98.265580 49.298228 20.716875 177.495211 -29.844607 -4.558010 1.333835 18.886057 2.634818 0.096871 2.215017 0.246326 0.190221 3.660886 0.386000 1.027158 16.374113 1.917413 9.462507 16.922408 0.080263 17.464705 -3.854994 -3.032775 -2.482128 -2.292725 -3.315275 -0.157501 -11.975317 -12.714217 -71.553265 -61.782875 116.782101 4.558211 -2.283869 -10.207547 0.881566 -1.972678 2.931864 18.868933 -6.568768 16.283945 84.516249 -44.104600 -111.300501 15.374340 -10.526461 17.225449 -4.975705 -54.365139 -6.482089 -149.328593 82.428987 -136.709498 -30.049422 -3.090887 -4.389844 -0.170676 -11.943095 1.756424 -14.595606 -56.726424 20.159824 -74.132791 65.326076 -79.401386 30.864650 6.694808 16.393140 -0.043981 -0.458975 -0.016713
-98.269083 49.297454 20.714635 177.521172 -29.848995 -4.559065 1.316051 18.890737 2.619037 0.106378 2.216794 0.237363 0.178202 3.660702 0.397264 1.032581 16.372973 1.896519 9.470723 16.920275 0.106107 17.580003 -3.827677 -3.088322 -2.490761 -2.282674 -3.293952 -0.152453 -11.967814 -12.708879 -71.581953 -61.777167 116.820464 4.539918 -2.313760 -10.182973 0.877216 -1.965146 2.941308 18.808664 -6.554551 16.225701 84.515018 -44.059714 -111.322213 15.384646 -10.528608 17.149630 -4.974291 -54.366802 -6.495808 -149.349049 82.416702 -136.747826 -30.060275 -3.082733 -4.357545 -0.191025 -11.945322 1.751370 -14.585744 -56.723848 20.140795 -74.131688 65.309064 -79.404426 30.853043 6.695592 16.394770 -0.030328 -0.454806 -0.010020
-98.272817 49.295735 20.714276 177.543107 -29.842281 -4.556658 1.296720 18.882137 2.603398 0.104819 2.218070 0.237817 0.178738 3.661889 0.396181 1.025315 16.365190 1.890839 9.512252 16.931498 0.096491 17.677182 -3.808917 -3.159873 -2.489144 -2.265042 -3.288170 -0.134094 -11.949560 -12.707156 -71.605750 -61.744881 116.888590 4.512393 -2.347565 -10.143672 0.882868 -1.950542 2.933876 18.770692 -6.551990 16.191450 84.483378 -43.972288 -111.334734 15.396572 -10.530717 17.090520 -4.971599 -54.377926 -6.510408 -149.334664 82.409599 -136.745210 -30.072682 -3.079485 -4.343993 -0.192948 -11.942745 1.753268 -14.579462 -56.733100 20.122462 -74.110042 65.295768 -79.393294 30.866906 6.707058 16.411899 -0.038875 -0.461408 -0.010458
-98.273566 49.295031 20.713156 177.559469 -29.845098 -4.568213 1.285347 18.884315 2.606873 0.105729 2.216013 0.236821 0.179615 3.656868 0.393428 1.009277 16.361997 1.885805 9.613632 16.933011 0.020177 17.764732 -3.799241 -3.206687 -2.480626 -2.248567 -3.279021 -0.114059 -11.934797 -12.707662 -71.567370 -61.667018 116.929888 4.540173 -2.348477 -10.129330 0.893648 -1.935928 2.927176 18.760006 -6.554296 16.187085 84.425781 -43.838578 -111.347535 15.408722 -10.535769 17.045405 -4.959118 -54.372590 -6.508188 -149.224065 82.399098 -136.627597 -30.105411 -3.085259 -4.336151 -0.182378 -11.932078 1.761243 -14.594973 -56.728475 20.127677 -74.107466 65.292547 -79.392397 30.871909 6.706763 16.414429 -0.044215 -0.459399 -0.011180
-98.273313 49.293928 20.713435 177.565280 -29.841994 -4.579795 1.278300 18.876698 2.609688 0.094081 2.205957 0.232839 0.180039 3.655589 0.391803 1.005298 16.363905 1.886281 9.697709 16.933705 -0.039287 17.939807 -3.779360 -3.343001 -2.464051 -2.230505 -3.271679 -0.084301 -11.928826 -12.691714 -71.566655 -61.673876 116.922306 4.517021 -2.333610 -10.064666 0.910980 -1.920831 2.921539 18.716881 -6.545339 16.132628 84.394691 -43.746241 -111.353198 15.426391 -10.551906 17.015017 -4.953530 -54.373967 -6.500364 -149.180227 82.393011 -136.579598 -30.092438 -3.087247 -4.346928 -0.217383 -11.923927 1.784095 -14.608847 -56.727743 20.153198 -74.101499 65.282861 -79.391068 30.862194 6.705210 16.416415 -0.033258 -0.448488 -0.011005
-98.274240 49.292745 20.714013 177.571190 -29.838531 -4.583420 1.264063 18.866253 2.603830 0.088688 2.204710 0.235263 0.190617 3.661752 0.391172 0.996015 16.358866 1.883730 9.795967 16.919884 -0.116961 18.172099 -3.762971 -3.525407 -2.453826 -2.221114 -3.269416 -0.073198 -11.930542 -12.688412 -71.549554 -61.661624 116.912739 4.513580 -2.306822 -10.000318 0.921351 -1.912661 2.919169 18.657285 -6.529801 16.031639 84.374894 -43.685739 -111.356459 15.456972 -10.581318 16.994721 -4.934768 -54.378825 -6.502938 -149.131981 82.385323 -136.543632 -30.058805 -3.073980 -4.335094 -0.178285 -11.922542 1.777600 -14.600281 -56.730948 20.161580 -74.086715 65.279029 -79.384724 30.843810 6.706034 16.429381 -0.024182 -0.443556 -0.009827
-98.277039 49.292744 20.712508 177.591275 -29.849514 -4.581686 1.213331 18.865706 2.584325 0.108883 2.214584 0.233132 0.182385 3.655079 0.389180 0.973574 16.350234 1.883425 9.947395 16.913811 -0.215630 18.474945 -3.749485 -3.754897 -2.431580 -2.201060 -3.265937 -0.045733 -11.931078 -12.696511 -71.523153 -61.644380 116.900690 4.536235 -2.283362 -9.941752 0.950069 -1.889917 2.905112 18.624857 -6.519095 15.973297 84.335964 -43.570805 -111.370207 15.501117 -10.626781 16.984888 -4.906680 -54.368436 -6.527504 -148.991741 82.372537 -136.395638 -30.131444 -3.078867 -4.307254 -0.128989 -11.915285 1.765410 -14.588410 -56.722460 20.135067 -74.075988 65.281543 -79.375363 30.839021 6.714927 16.430516 -0.018297 -0.446255 -0.006942
-98.278549 49.292035 20.712668 177.599526 -29.852312 -4.581937 1.189013 18.863014 2.580087 0.115020 2.216560 0.229379 0.170916 3.647820 0.390160 0.956496 16.347087 1.881276 10.129288 16.898828 -0.328614 18.853497 -3.737408 -4.026246 -2.417611 -2.183913 -3.263082 0.005053 -11.949672 -12.690234 -71.471234 -61.638235 116.859984 4.567564 -2.268336 -9.898153 0.973724 -1.877074 2.894629 18.596417 -6.504608 15.932533 84.286959 -43.425398 -111.384903 15.552911 -10.688038 16.986945 -4.883125 -54.367661 -6.542639 -148.921265 82.359138 -136.322956 -30.127031 -3.078683 -4.295613 -0.227375 -11.907130 1.785175 -14.584936 -56.719415 20.129689 -74.063717 65.281725 -79.364924 30.832846 6.719382 16.431440 -0.011420 -0.444076 -0.005344
